<svg width="35" height="22" viewBox="0 0 35 22" fill="none" xmlns="http://www.w3.org/2000/svg">
<path d="M33.7678 4.76777C34.7441 3.79146 34.7441 2.20854 33.7678 1.23223C32.7915 0.255922 31.2085 0.255922 30.2322 1.23223L33.7678 4.76777ZM17.5 17.5L15.7322 19.2678L17.5 21.0355L19.2678 19.2678L17.5 17.5ZM4.76777 1.23223C3.79146 0.255922 2.20854 0.255922 1.23223 1.23223C0.255922 2.20854 0.255922 3.79146 1.23223 4.76777L4.76777 1.23223ZM30.2322 1.23223L15.7322 15.7322L19.2678 19.2678L33.7678 4.76777L30.2322 1.23223ZM19.2678 15.7322L4.76777 1.23223L1.23223 4.76777L15.7322 19.2678L19.2678 15.7322Z" fill="black"/>
</svg>
