<svg width="150" height="66" viewBox="0 0 150 66" fill="none" xmlns="http://www.w3.org/2000/svg">
<path d="M0.0834961 56L14.3109 14.4074C16.9745 6.62058 25.4462 2.46743 33.233 5.13102L19.0055 46.7237C16.342 54.5104 7.87026 58.6636 0.0834961 56Z" fill="url(#paint0_linear_24_57)"/>
<path d="M33.233 5.13098L22.8157 35.5853C20.1521 43.372 24.3052 51.8437 32.092 54.5073L42.5094 24.053C45.173 16.2662 41.0198 7.79457 33.233 5.13098Z" fill="url(#paint1_linear_24_57)"/>
<path d="M79.5322 45V38.24H64.0522V18.2H56.5322V45H79.5322ZM92.7722 45.4C99.5722 45.4 103.852 42.24 103.852 37.76V37.28H96.3322V37.72C96.3322 38.92 95.5322 39.44 92.4922 39.44C89.2922 39.44 88.2122 38.76 88.0922 36.32H103.892C103.972 35.6 104.012 35.08 104.012 34.4C104.012 27.92 99.5722 24.44 92.6122 24.44C85.8922 24.44 81.1322 28.36 81.1322 34.92C81.1322 42.48 85.9322 45.4 92.7722 45.4ZM92.4522 30.2C95.2522 30.2 96.4522 30.8 96.7322 32.52H88.2122C88.5322 30.8 89.6922 30.2 92.4522 30.2ZM112.544 45.4C116.904 45.4 119.384 43.6 120.144 40.76H120.544V45H127.584V33.52C127.584 27.88 124.184 24.44 117.144 24.44C110.304 24.44 105.824 27.88 105.824 33.24V33.32H113.344V33.16C113.344 31.48 114.104 31 116.584 31C119.264 31 120.144 31.32 120.144 33.36V33.76L111.944 34.56C107.384 35 105.424 37.04 105.424 39.88C105.424 43.32 107.984 45.4 112.544 45.4ZM112.984 39.4C112.984 38.96 113.264 38.72 113.944 38.64L120.104 37.92C119.904 39.72 118.424 40.16 114.784 40.16C113.624 40.16 112.984 40.04 112.984 39.4ZM137.333 23V18.2H129.813V23H137.333ZM137.333 45V24.84H129.813V45H137.333ZM147.255 45V18.2H139.735V45H147.255Z" fill="black"/>
<defs>
<linearGradient id="paint0_linear_24_57" x1="33.3937" y1="5.03708" x2="2.10104" y2="49.3683" gradientUnits="userSpaceOnUse">
<stop/>
<stop offset="0.505208" stop-color="#131313"/>
<stop offset="1" stop-color="#242424"/>
</linearGradient>
<linearGradient id="paint1_linear_24_57" x1="25.5706" y1="48.9957" x2="43.4521" y2="19.5658" gradientUnits="userSpaceOnUse">
<stop/>
<stop offset="0.510417" stop-color="#131313"/>
<stop offset="1" stop-color="#242424"/>
</linearGradient>
</defs>
</svg>
