<svg width="32" height="32" viewBox="0 0 32 32" fill="none" xmlns="http://www.w3.org/2000/svg">
<path d="M0 6.4C0 3.992 1.248 1.472 3.2 0C3.2 1.352 4.304 3.2 6.4 3.2C7.67304 3.2 8.89394 3.70571 9.79411 4.60589C10.6943 5.50606 11.2 6.72696 11.2 8C11.2 8.6176 11.0736 9.2032 10.8608 9.7456C12.0476 10.6875 13.2164 11.6519 14.3664 12.6384L11.0384 15.9664C10.0523 14.816 9.0879 13.6473 8.1456 12.4608C7.59019 12.6824 6.998 12.7975 6.4 12.8C2.864 12.8 0 9.936 0 6.4ZM19.4432 17.3568L21.5888 15.2112C22.5824 15.7227 23.6825 15.993 24.8 16C26.7096 16 28.5409 15.2414 29.8912 13.8912C31.2414 12.5409 32 10.7096 32 8.8C32 7.64 31.6992 6.5584 31.2112 5.5888L25.6 11.2L22.4 8L28.0112 2.3888C27.0176 1.87728 25.9175 1.60705 24.8 1.6C22.8904 1.6 21.0591 2.35857 19.7088 3.70883C18.3586 5.05909 17.6 6.89044 17.6 8.8C17.6 9.96 17.9008 11.0416 18.3888 12.0112L1.6 28.8L4.8 32L15.7568 21.0432C18.7702 24.135 21.9635 27.0462 25.32 29.7616L27.6 31.6L30 29.2L28.1616 26.92C25.4462 23.5635 22.535 20.3702 19.4432 17.3568V17.3568Z" fill="black"/>
</svg>
