<svg width="24" height="32" viewBox="0 0 24 32" fill="none" xmlns="http://www.w3.org/2000/svg">
<path fill-rule="evenodd" clip-rule="evenodd" d="M2 0C0.895431 0 0 0.895431 0 2V30C0 31.1046 0.89543 32 2 32H22C23.1046 32 24 31.1046 24 30V2C24 0.895431 23.1046 0 22 0H2ZM3.99999 5.33334C3.26361 5.33334 2.66666 5.93029 2.66666 6.66667C2.66666 7.40305 3.26361 8 3.99999 8H7.99999C8.73637 8 9.33332 7.40305 9.33332 6.66667C9.33332 5.93029 8.73637 5.33334 7.99999 5.33334H3.99999ZM18.6667 6.66667C18.6667 5.93029 19.2637 5.33334 20.0001 5.33334C20.7364 5.33334 21.3334 5.93029 21.3334 6.66667C21.3334 7.40305 20.7364 8 20.0001 8C19.2637 8 18.6667 7.40305 18.6667 6.66667ZM4.00002 14.6667C3.26364 14.6667 2.66669 15.2636 2.66669 16C2.66669 16.7364 3.26364 17.3333 4.00002 17.3333H20C20.7364 17.3333 21.3334 16.7364 21.3334 16C21.3334 15.2636 20.7364 14.6667 20 14.6667H4.00002ZM2.66669 21.3333C2.66669 20.597 3.26364 20 4.00002 20H20C20.7364 20 21.3334 20.597 21.3334 21.3333C21.3334 22.0697 20.7364 22.6667 20 22.6667H4.00002C3.26364 22.6667 2.66669 22.0697 2.66669 21.3333ZM4.00002 26.6667C3.26364 26.6667 2.66669 27.2636 2.66669 28C2.66669 28.7364 3.26364 29.3333 4.00002 29.3333H8.00002C8.7364 29.3333 9.33335 28.7364 9.33335 28C9.33335 27.2636 8.7364 26.6667 8.00002 26.6667H4.00002Z" fill="black"/>
</svg>
