<svg width="25" height="32" viewBox="0 0 25 32" fill="none" xmlns="http://www.w3.org/2000/svg">
<path fill-rule="evenodd" clip-rule="evenodd" d="M14.6596 0.0806137C15.0181 0.194111 15.3313 0.419781 15.5537 0.724802C15.776 1.02982 15.8959 1.39829 15.8959 1.77662V10.6655H22.9604C23.2834 10.6654 23.6003 10.7544 23.8766 10.923C24.1529 11.0915 24.3779 11.3331 24.5273 11.6215C24.6766 11.9099 24.7445 12.2339 24.7236 12.5584C24.7026 12.8829 24.5937 13.1954 24.4086 13.462L12.0457 31.2398C11.8306 31.55 11.5227 31.7831 11.1668 31.9051C10.811 32.0271 10.4257 32.0316 10.0671 31.9179C9.70857 31.8043 9.39538 31.5785 9.17312 31.2733C8.95087 30.9681 8.83115 30.5995 8.83139 30.2211V21.3322H1.76691C1.44385 21.3323 1.12694 21.2433 0.850675 21.0747C0.574405 20.9062 0.349357 20.6646 0.200021 20.3762C0.0506863 20.0878 -0.0172144 19.7638 0.00370856 19.4393C0.0246315 19.1148 0.133577 18.8023 0.318688 18.5357L12.6815 0.757948C12.897 0.448235 13.205 0.215747 13.5607 0.0942602C13.9164 -0.0272267 14.3014 -0.0313843 14.6596 0.0823916V0.0806137Z" fill="black"/>
</svg>
