<svg width="32" height="32" viewBox="0 0 32 32" fill="none" xmlns="http://www.w3.org/2000/svg">
<path d="M27.3074 31.1454C28.4005 32.2386 30.1405 32.2901 31.1708 31.2589C32.2021 30.2276 32.1505 28.4885 31.0574 27.3954L9.24726 5.58433C8.15319 4.49026 6.41412 4.4387 5.3838 5.47089C4.3516 6.50215 4.40317 8.24122 5.49724 9.33436L27.3074 31.1454V31.1454Z" fill="black"/>
<path d="M3.14784 7.12466C2.97364 6.95054 2.83546 6.74381 2.74119 6.51627C2.64691 6.28874 2.59839 6.04486 2.59839 5.79856C2.59839 5.55227 2.64691 5.30839 2.74119 5.08085C2.83546 4.85331 2.97364 4.64658 3.14784 4.47246L4.47347 3.14683C4.82517 2.79525 5.30214 2.59778 5.79943 2.59787C6.29673 2.59796 6.77362 2.79559 7.1252 3.1473C7.47678 3.499 7.67425 3.97596 7.67416 4.47326C7.67407 4.97056 7.47644 5.44745 7.12473 5.79903L5.7991 7.12466C5.44749 7.47618 4.97065 7.67364 4.47347 7.67364C3.97628 7.67364 3.49945 7.47618 3.14784 7.12466V7.12466Z" fill="black"/>
<path d="M21.5088 0.88369C19.7679 0.187124 11.1963 -1.92883 4.63371 4.63371C-1.92883 11.1963 0.187124 19.7679 0.883691 21.5088C2.7587 26.1963 2.45026 20.5122 2.7587 18.6963C3.71027 13.0985 6.34185 10.0919 8.21686 8.21686C10.0919 6.34185 13.1191 3.7234 18.6963 2.7587C20.4972 2.44745 26.1963 2.7587 21.5088 0.88369Z" fill="black"/>
</svg>
