<svg width="24" height="32" viewBox="0 0 24 32" fill="none" xmlns="http://www.w3.org/2000/svg">
<path d="M23.5895 23.6553L18.6079 17.9999H20.5179C21.0797 17.9999 21.5767 17.6874 21.8136 17.1836C22.0506 16.6811 21.9726 16.1049 21.6091 15.6806L16.7373 10.0001H18.5387C19.1062 10.0001 19.6175 9.66576 19.8395 9.14953C20.0589 8.64142 19.9554 8.05019 19.5751 7.64458L12.6991 0.302333C12.3231 -0.100778 11.6216 -0.100778 11.245 0.302333L4.36837 7.64458C3.988 8.05019 3.88511 8.64142 4.10398 9.14953C4.32597 9.66576 4.83791 10.0001 5.40534 10.0001H7.2068L2.33432 15.6818C1.97204 16.1055 1.89409 16.6811 2.13042 17.1843C2.36737 17.6874 2.86372 17.9999 3.42617 17.9999H5.33613L0.354527 23.6553C-0.0196079 24.0796 -0.104412 24.6609 0.13254 25.1715C0.366374 25.6746 0.880809 25.9996 1.44263 25.9996H9.97664V27.5277L8.08789 30.5525C7.75616 31.2175 8.23879 32 8.9802 32H14.9639C15.7053 32 16.1879 31.2175 15.8562 30.5525L13.9674 27.5277V25.9996H22.5014C23.0632 25.9996 23.5777 25.6746 23.8115 25.1715C24.0485 24.6609 23.9637 24.0796 23.5895 23.6553Z" fill="black"/>
</svg>
