<svg width="1200" height="628" viewBox="0 0 1200 628" fill="none" xmlns="http://www.w3.org/2000/svg">
<rect width="1200" height="628" fill="white"/>
<path d="M288.285 411.513L347.445 235.431C358.47 202.615 393.908 185.253 426.596 196.654L367.436 372.736C356.411 405.552 320.974 422.914 288.285 411.513Z" fill="url(#paint0_linear_101_4)"/>
<path d="M426.272 196.425L382.955 325.397C371.939 358.196 389.491 394.025 422.159 405.423L465.476 276.451C476.492 243.653 458.94 207.824 426.272 196.425Z" fill="url(#paint1_linear_101_4)"/>
<path d="M616.811 359.569V332.191H554.117V251.029H523.661V359.569H616.811ZM670.433 361.189C697.973 361.189 715.307 348.391 715.307 330.247V328.303H684.851V330.085C684.851 334.945 681.611 337.051 669.299 337.051C656.339 337.051 651.965 334.297 651.479 324.415H715.469C715.793 321.499 715.955 319.393 715.955 316.639C715.955 290.395 697.973 276.301 669.785 276.301C642.569 276.301 623.291 292.177 623.291 318.745C623.291 349.363 642.731 361.189 670.433 361.189ZM669.137 299.629C680.477 299.629 685.337 302.059 686.471 309.025H651.965C653.261 302.059 657.959 299.629 669.137 299.629ZM750.51 361.189C768.168 361.189 778.212 353.899 781.29 342.397H782.91V359.569H811.422V313.075C811.422 290.233 797.652 276.301 769.14 276.301C741.438 276.301 723.294 290.233 723.294 311.941V312.265H753.75V311.617C753.75 304.813 756.828 302.869 766.872 302.869C777.726 302.869 781.29 304.165 781.29 312.427V314.047L748.08 317.287C729.612 319.069 721.674 327.331 721.674 338.833C721.674 352.765 732.042 361.189 750.51 361.189ZM752.292 336.889C752.292 335.107 753.426 334.135 756.18 333.811L781.128 330.895C780.318 338.185 774.324 339.967 759.582 339.967C754.884 339.967 752.292 339.481 752.292 336.889ZM850.906 270.469V251.029H820.45V270.469H850.906ZM850.906 359.569V277.921H820.45V359.569H850.906ZM891.09 359.569V251.029H860.634V359.569H891.09Z" fill="black"/>
<defs>
<linearGradient id="paint0_linear_101_4" x1="427.268" y1="196.258" x2="294.528" y2="381.946" gradientUnits="userSpaceOnUse">
<stop/>
<stop offset="0.505208" stop-color="#131313"/>
<stop offset="1" stop-color="#242424"/>
</linearGradient>
<linearGradient id="paint1_linear_101_4" x1="394.755" y1="381.989" x2="470.792" y2="258.616" gradientUnits="userSpaceOnUse">
<stop/>
<stop offset="0.510417" stop-color="#131313"/>
<stop offset="1" stop-color="#242424"/>
</linearGradient>
</defs>
</svg>
